<?xml version="1.0" encoding="UTF-8"?>
<!DOCTYPE svg PUBLIC "-//W3C//DTD SVG 1.1//EN" "http://www.w3.org/Graphics/SVG/1.1/DTD/svg11.dtd">
<svg xmlns="http://www.w3.org/2000/svg" version="1.1" width="512px" height="512px" style="shape-rendering:geometricPrecision; text-rendering:geometricPrecision; image-rendering:optimizeQuality; fill-rule:evenodd; clip-rule:evenodd" xmlns:xlink="http://www.w3.org/1999/xlink">
<g><path style="opacity:0.941" fill="#000000" d="M 511.5,350.5 C 511.5,366.167 511.5,381.833 511.5,397.5C 507.701,401.925 503.201,402.591 498,399.5C 496.705,386.928 496.038,374.262 496,361.5C 495.259,346.179 488.092,335.012 474.5,328C 462,323.167 449.5,318.333 437,313.5C 430.17,325.156 423.837,337.156 418,349.5C 412.966,353.9 407.466,354.567 401.5,351.5C 399.6,352.797 398.6,354.63 398.5,357C 404.223,390.173 409.89,423.34 415.5,456.5C 411.245,464.941 405.578,472.441 398.5,479C 416.164,479.5 433.83,479.667 451.5,479.5C 451.333,442.165 451.5,404.832 452,367.5C 455.166,362.503 459.333,361.503 464.5,364.5C 465.806,365.912 466.64,367.579 467,369.5C 467.5,406.165 467.667,442.832 467.5,479.5C 477.083,479.818 486.583,479.485 496,478.5C 496.333,460.5 496.667,442.5 497,424.5C 501.774,419.402 506.607,419.402 511.5,424.5C 511.5,444.5 511.5,464.5 511.5,484.5C 509.377,489.454 505.71,492.954 500.5,495C 420.167,495.667 339.833,495.667 259.5,495C 258.128,494.598 256.795,494.098 255.5,493.5C 254.205,494.098 252.872,494.598 251.5,495C 171.167,495.667 90.8333,495.667 10.5,495C 5.28997,492.954 1.62331,489.454 -0.5,484.5C -0.5,439.833 -0.5,395.167 -0.5,350.5C 3.3257,335.825 11.659,324.325 24.5,316C 48.1911,306.104 72.0244,296.604 96,287.5C 96.6667,283.5 96.6667,279.5 96,275.5C 85.3342,266.506 78.5009,255.173 75.5,241.5C 59.2164,237.045 51.7164,226.378 53,209.5C 53.8558,205.456 55.5224,201.789 58,198.5C 55.0575,174.328 60.3909,152.328 74,132.5C 83.4016,121.552 94.9016,113.719 108.5,109C 115.165,107.665 119.165,110.332 120.5,117C 119.896,119.468 118.562,121.468 116.5,123C 86.3649,134.475 72.5316,156.308 75,188.5C 76.5,185.667 78.6667,183.5 81.5,182C 90.1237,180.869 98.7904,180.202 107.5,180C 112.552,179.256 117.552,178.256 122.5,177C 135.016,172.488 147.182,167.321 159,161.5C 161.253,161.631 163.419,162.131 165.5,163C 173.072,169.901 179.905,177.401 186,185.5C 187.85,153.198 173.35,132.198 142.5,122.5C 138.539,118.036 138.539,113.536 142.5,109C 144.137,108.399 145.803,107.899 147.5,107.5C 158.109,110.305 167.776,114.972 176.5,121.5C 177.462,116.777 179.295,112.443 182,108.5C 182.139,96.7919 182.806,85.1252 184,73.5C 193.59,36.9084 217.256,17.575 255,15.5C 290.797,17.3932 314.13,35.3932 325,69.5C 326.957,82.4154 327.957,95.4154 328,108.5C 331.049,112.647 332.716,117.313 333,122.5C 363.689,100.06 394.522,99.8929 425.5,122C 440.033,134.549 448.533,150.382 451,169.5C 451.333,179.167 451.667,188.833 452,198.5C 462.13,219.27 456.297,233.603 434.5,241.5C 431.586,254.668 425.086,265.668 415,274.5C 414.333,278.833 414.333,283.167 415,287.5C 438.976,296.604 462.809,306.104 486.5,316C 499.341,324.325 507.674,335.825 511.5,350.5 Z M 246.5,31.5 C 283.048,30.2184 304.548,47.5517 311,83.5C 311.667,88.5 311.667,93.5 311,98.5C 310.751,95.8232 309.751,93.4899 308,91.5C 302.532,85.0311 296.699,78.8644 290.5,73C 286.625,71.4796 282.625,71.1462 278.5,72C 256.899,85.9223 233.232,92.2556 207.5,91C 203.725,92.4421 200.892,94.9421 199,98.5C 196.686,63.0828 212.519,40.7494 246.5,31.5 Z M 281.5,88.5 C 282.239,88.369 282.906,88.5357 283.5,89C 286.883,92.9281 290.383,96.7614 294,100.5C 294.667,116.5 294.667,132.5 294,148.5C 284.79,175.856 266.29,185.356 238.5,177C 226.997,171.158 219.497,161.992 216,149.5C 214.653,135.203 214.153,120.87 214.5,106.5C 238.769,107.185 261.102,101.185 281.5,88.5 Z M 197.5,115.5 C 198.816,121.013 198.816,126.68 197.5,132.5C 191.07,126.953 191.07,121.286 197.5,115.5 Z M 310.5,115.5 C 314.719,116.92 316.719,119.92 316.5,124.5C 316.701,128.768 314.868,131.768 311,133.5C 310.501,127.509 310.334,121.509 310.5,115.5 Z M 373.5,121.5 C 407.651,121.492 428.151,138.159 435,171.5C 435.667,177.167 435.667,182.833 435,188.5C 434.751,185.823 433.751,183.49 432,181.5C 426.384,175.762 420.884,169.929 415.5,164C 412.991,162.664 410.324,161.83 407.5,161.5C 395.447,167.189 383.114,172.355 370.5,177C 365.9,178.317 361.234,179.317 356.5,180C 347.773,180.123 339.106,180.79 330.5,182C 327.689,183.644 325.356,185.81 323.5,188.5C 320.342,162.655 329.675,142.822 351.5,129C 358.578,125.364 365.911,122.864 373.5,121.5 Z M 197.5,149.5 C 198.458,149.953 199.292,150.619 200,151.5C 202.858,164.895 209.524,175.895 220,184.5C 220.828,188.871 220.661,193.205 219.5,197.5C 215.088,198.97 210.755,200.637 206.5,202.5C 204.854,201.221 203.687,199.555 203,197.5C 202.667,187.167 202.333,176.833 202,166.5C 200.964,160.69 199.464,155.023 197.5,149.5 Z M 311.5,149.5 C 312.043,149.56 312.376,149.893 312.5,150.5C 309.203,158.147 307.37,166.147 307,174.5C 306.667,182.833 306.333,191.167 306,199.5C 305.581,200.672 304.915,201.672 304,202.5C 299.81,200.936 295.644,199.269 291.5,197.5C 290.338,192.869 290.172,188.202 291,183.5C 301.188,174.114 308.021,162.781 311.5,149.5 Z M 157.5,178.5 C 162.164,182.331 166.33,186.664 170,191.5C 170.667,206.833 170.667,222.167 170,237.5C 163.72,262.071 147.886,272.904 122.5,270C 104.223,265.057 93.7235,253.224 91,234.5C 90.5001,221.838 90.3334,209.171 90.5,196.5C 114.844,197.5 137.177,191.5 157.5,178.5 Z M 406.5,178.5 C 410.436,182.938 414.602,187.271 419,191.5C 419.869,207.866 419.536,224.199 418,240.5C 408.639,265.931 390.806,275.098 364.5,268C 351.642,262.135 343.475,252.302 340,238.5C 339.5,224.504 339.333,210.504 339.5,196.5C 363.813,197.388 386.146,191.388 406.5,178.5 Z M 236.5,193.5 C 249.153,197.442 261.819,197.442 274.5,193.5C 274.752,196.32 274.252,198.986 273,201.5C 267.355,208.646 261.522,215.646 255.5,222.5C 249.175,215.338 243.008,208.005 237,200.5C 236.503,198.19 236.337,195.857 236.5,193.5 Z M 186.5,205.5 C 192.604,208.907 194.104,213.907 191,220.5C 189.846,221.743 188.512,222.743 187,223.5C 186.501,217.509 186.334,211.509 186.5,205.5 Z M 322.5,205.5 C 323.817,211.346 323.817,217.346 322.5,223.5C 315.908,217.587 315.908,211.587 322.5,205.5 Z M 435.5,205.5 C 443.27,211.26 443.436,217.26 436,223.5C 435.501,217.509 435.334,211.509 435.5,205.5 Z M 72.5,206.5 C 73.8142,208.915 74.4809,211.748 74.5,215C 74.3333,217.833 74.1667,220.667 74,223.5C 67.2721,218.366 66.7721,212.7 72.5,206.5 Z M 224.5,212.5 C 226.017,212.511 227.184,213.177 228,214.5C 233.167,221 238.333,227.5 243.5,234C 238.638,237.695 233.638,241.195 228.5,244.5C 223.578,235.657 218.912,226.657 214.5,217.5C 217.894,215.803 221.227,214.136 224.5,212.5 Z M 284.5,212.5 C 288.738,213.62 292.738,215.287 296.5,217.5C 292.088,226.657 287.422,235.657 282.5,244.5C 277.15,241.492 272.15,237.992 267.5,234C 273.381,226.958 279.047,219.792 284.5,212.5 Z M 202.5,231.5 C 208.013,241.352 213.68,251.186 219.5,261C 224.236,264.081 229.069,264.248 234,261.5C 234.945,261.905 235.612,262.572 236,263.5C 234.383,279.542 232.216,295.542 229.5,311.5C 208.49,303.996 187.656,295.996 167,287.5C 166.333,282.833 166.333,278.167 167,273.5C 177.333,264.834 183.499,253.834 185.5,240.5C 192.479,239.845 198.146,236.845 202.5,231.5 Z M 306.5,232.5 C 311.794,236.398 317.627,239.398 324,241.5C 326.351,255.218 333.018,266.218 344,274.5C 344.667,278.833 344.667,283.167 344,287.5C 323.344,295.996 302.51,303.996 281.5,311.5C 278.783,295.539 276.617,279.539 275,263.5C 275.388,262.572 276.055,261.905 277,261.5C 283.401,264.62 289.067,263.62 294,258.5C 298.451,249.933 302.617,241.267 306.5,232.5 Z M 253.5,246.5 C 257.375,247.177 260.708,249.01 263.5,252C 262.833,252.667 262.167,253.333 261.5,254C 257.5,254.667 253.5,254.667 249.5,254C 248.833,253.333 248.167,252.667 247.5,252C 249.396,249.932 251.396,248.099 253.5,246.5 Z M 252.5,270.5 C 255.079,270.083 257.246,270.75 259,272.5C 261.462,288.443 264.296,304.276 267.5,320C 262.953,323.712 258.953,327.878 255.5,332.5C 252.047,327.878 248.047,323.712 243.5,320C 246.551,303.531 249.551,287.031 252.5,270.5 Z M 148.5,283.5 C 149.725,284.152 150.392,285.319 150.5,287C 150.333,288.167 150.167,289.333 150,290.5C 143.667,298.167 137.333,305.833 131,313.5C 125.573,306.317 119.906,299.317 114,292.5C 112.748,289.986 112.248,287.32 112.5,284.5C 121.738,286.395 131.071,286.895 140.5,286C 143.379,285.454 146.046,284.621 148.5,283.5 Z M 360.5,283.5 C 373,287.483 385.5,287.483 398,283.5C 398.996,287.207 398.33,290.541 396,293.5C 390.962,300.248 385.462,306.581 379.5,312.5C 373.175,305.338 367.008,298.005 361,290.5C 360.503,288.19 360.337,285.857 360.5,283.5 Z M 160.5,302.5 C 164.632,304.044 168.632,305.877 172.5,308C 167.794,317.246 162.961,326.412 158,335.5C 153.001,331.994 148.167,328.327 143.5,324.5C 149.191,317.148 154.857,309.815 160.5,302.5 Z M 349.5,302.5 C 355.825,309.499 361.825,316.832 367.5,324.5C 362.833,328.327 357.999,331.994 353,335.5C 348.039,326.412 343.206,317.246 338.5,308C 342.192,306.058 345.858,304.224 349.5,302.5 Z M 98.5,303.5 C 101.325,303.081 103.491,304.081 105,306.5C 109.514,312.344 114.014,318.178 118.5,324C 118.241,325.261 117.574,326.261 116.5,327C 112.333,329.833 108.167,332.667 104,335.5C 98.9357,326.041 94.4357,316.374 90.5,306.5C 93.4432,306.02 96.1098,305.02 98.5,303.5 Z M 408.5,303.5 C 412.485,304.488 416.485,305.488 420.5,306.5C 416.564,316.374 412.064,326.041 407,335.5C 401.744,331.789 396.578,327.955 391.5,324C 397.533,317.413 403.199,310.579 408.5,303.5 Z M 72.5,313.5 C 73.675,313.281 74.675,313.614 75.5,314.5C 81.3333,326.167 87.1667,337.833 93,349.5C 98.0343,353.9 103.534,354.567 109.5,351.5C 110.799,352.09 111.632,353.09 112,354.5C 107.158,388.221 101.658,421.888 95.5,455.5C 96.0257,458.272 96.8591,460.938 98,463.5C 102.485,468.953 107.319,474.119 112.5,479C 94.8365,479.5 77.1698,479.667 59.5,479.5C 59.6667,442.165 59.5,404.832 59,367.5C 55.8337,362.503 51.667,361.503 46.5,364.5C 45.1936,365.912 44.3603,367.579 44,369.5C 43.5,406.165 43.3333,442.832 43.5,479.5C 33.9166,479.818 24.4166,479.485 15,478.5C 14.0458,436.808 14.3791,395.141 16,353.5C 18.6566,343.692 24.1566,335.859 32.5,330C 46.0366,324.723 59.3699,319.223 72.5,313.5 Z M 187.5,313.5 C 202.421,318.641 217.088,324.475 231.5,331C 239.803,337.09 244.97,345.257 247,355.5C 247.5,396.832 247.667,438.165 247.5,479.5C 237.833,479.5 228.167,479.5 218.5,479.5C 218.667,442.165 218.5,404.832 218,367.5C 214.834,362.503 210.667,361.503 205.5,364.5C 204.194,365.912 203.36,367.579 203,369.5C 202.5,406.165 202.333,442.832 202.5,479.5C 185.163,479.667 167.83,479.5 150.5,479C 155.333,473.5 160.167,468 165,462.5C 165.906,460.256 166.406,457.923 166.5,455.5C 161.263,422.078 155.596,388.745 149.5,355.5C 150.581,351.851 152.581,351.017 155.5,353C 161.322,354.503 166.155,353.003 170,348.5C 175.847,336.807 181.68,325.14 187.5,313.5 Z M 321.5,313.5 C 322.496,313.414 323.329,313.748 324,314.5C 329.667,325.833 335.333,337.167 341,348.5C 345.916,353.74 351.583,354.74 358,351.5C 359.529,352.729 360.696,354.229 361.5,356C 355.353,389.045 349.687,422.211 344.5,455.5C 344.478,457.965 344.978,460.298 346,462.5C 350.833,468 355.667,473.5 360.5,479C 343.17,479.5 325.837,479.667 308.5,479.5C 308.667,442.832 308.5,406.165 308,369.5C 305.858,363.181 301.691,361.347 295.5,364C 294.299,364.903 293.465,366.069 293,367.5C 292.5,404.832 292.333,442.165 292.5,479.5C 282.833,479.5 273.167,479.5 263.5,479.5C 263.333,438.165 263.5,396.832 264,355.5C 265.993,344.341 271.827,335.841 281.5,330C 294.893,324.376 308.226,318.876 321.5,313.5 Z M 130.5,336.5 C 133.778,337.809 136.778,339.642 139.5,342C 138.643,342.689 137.977,343.522 137.5,344.5C 133.285,345.798 129.118,345.798 125,344.5C 124.626,343.584 124.126,342.75 123.5,342C 125.903,340.147 128.236,338.314 130.5,336.5 Z M 378.5,336.5 C 381.861,337.684 384.861,339.517 387.5,342C 386.833,343 386.167,344 385.5,345C 380.15,346.339 375.483,345.339 371.5,342C 374.02,340.303 376.353,338.47 378.5,336.5 Z M 127.5,361.5 C 129.833,361.5 132.167,361.5 134.5,361.5C 139.67,392.354 145.004,423.187 150.5,454C 144.013,461.155 137.513,468.322 131,475.5C 125,468.833 119,462.167 113,455.5C 112.833,454.5 112.667,453.5 112.5,452.5C 117.827,422.207 122.827,391.874 127.5,361.5 Z M 376.5,361.5 C 378.833,361.5 381.167,361.5 383.5,361.5C 388.173,391.874 393.173,422.207 398.5,452.5C 398.333,453.5 398.167,454.5 398,455.5C 392,462.167 386,468.833 380,475.5C 373.379,468.409 366.879,461.243 360.5,454C 365.996,423.187 371.33,392.354 376.5,361.5 Z"/></g>
</svg>
