<?xml version="1.0" encoding="UTF-8"?>
<!DOCTYPE svg PUBLIC "-//W3C//DTD SVG 1.1//EN" "http://www.w3.org/Graphics/SVG/1.1/DTD/svg11.dtd">
<svg xmlns="http://www.w3.org/2000/svg" version="1.1" width="512px" height="512px" style="shape-rendering:geometricPrecision; text-rendering:geometricPrecision; image-rendering:optimizeQuality; fill-rule:evenodd; clip-rule:evenodd" xmlns:xlink="http://www.w3.org/1999/xlink">
<g><path style="opacity:0.958" fill="#000000" d="M 251.5,20.5 C 254.187,20.3359 256.854,20.5026 259.5,21C 334.833,58.6667 410.167,96.3333 485.5,134C 487.378,135.543 488.878,137.376 490,139.5C 490.994,217.582 490.661,295.582 489,373.5C 487.833,374.667 486.667,375.833 485.5,377C 410.167,414.667 334.833,452.333 259.5,490C 256.833,490.667 254.167,490.667 251.5,490C 176.167,452.333 100.833,414.667 25.5,377C 23.6217,375.457 22.1217,373.624 21,371.5C 20.0061,293.418 20.3394,215.418 22,137.5C 23.1667,136.333 24.3333,135.167 25.5,134C 101.049,96.3922 176.383,58.5588 251.5,20.5 Z M 253.5,44.5 C 254.873,44.3433 256.207,44.51 257.5,45C 322.989,77.5776 388.322,110.411 453.5,143.5C 440.079,150.628 426.579,157.628 413,164.5C 346.911,131.205 280.744,98.0388 214.5,65C 227.561,58.1375 240.561,51.3042 253.5,44.5 Z M 187.5,77.5 C 254.268,110.384 320.935,143.551 387.5,177C 368.167,186.667 348.833,196.333 329.5,206C 328.167,206.667 326.833,206.667 325.5,206C 260.5,173.5 195.5,141 130.5,108.5C 129.167,107.833 129.167,107.167 130.5,106.5C 149.717,97.0589 168.717,87.3922 187.5,77.5 Z M 101.5,120.5 C 102.873,120.343 104.207,120.51 105.5,121C 170.989,153.578 236.322,186.411 301.5,219.5C 286.99,227.255 272.323,234.755 257.5,242C 256.167,242.667 254.833,242.667 253.5,242C 188.5,209.5 123.5,177 58.5,144.5C 57.1667,143.833 57.1667,143.167 58.5,142.5C 73.0507,135.392 87.384,128.059 101.5,120.5 Z M 42.5,161.5 C 109.718,195.026 176.884,228.692 244,262.5C 244.667,328.833 244.667,395.167 244,461.5C 177,427.833 110,394.167 43,360.5C 42.5,294.168 42.3333,227.834 42.5,161.5 Z M 467.5,161.5 C 468.665,227.665 468.832,293.999 468,360.5C 401,394.167 334,427.833 267,461.5C 266.333,395.167 266.333,328.833 267,262.5C 282.089,254.706 297.256,247.039 312.5,239.5C 313.333,273.495 313.833,307.495 314,341.5C 320.036,351.336 327.036,352.003 335,343.5C 348.667,323.833 362.333,304.167 376,284.5C 384.744,291.122 393.578,297.622 402.5,304C 410.786,308.711 416.952,306.878 421,298.5C 421.167,260.496 421.667,222.496 422.5,184.5C 437.717,177.059 452.717,169.392 467.5,161.5 Z M 397.5,196.5 C 398.833,208.982 399.499,221.815 399.5,235C 399.333,247.833 399.167,260.667 399,273.5C 392.167,268.667 385.333,263.833 378.5,259C 373.143,256.738 368.31,257.571 364,261.5C 354.419,274.993 345.086,288.66 336,302.5C 335.167,277.493 335.334,252.493 336.5,227.5C 357.05,217.392 377.384,207.059 397.5,196.5 Z"/></g>
</svg>
